<mxfile host="app.diagrams.net" modified="2021-06-18T23:10:09.151Z" agent="5.0 (Windows NT 10.0; Win64; x64) AppleWebKit/537.36 (KHTML, like Gecko) Chrome/91.0.4472.106 Safari/537.36" etag="62jBg6peS_BsaEA_ICep" version="14.8.0" type="github">
  <diagram id="BHlKK4XQurzR5Y1lUnGf" name="Page-1">
    <mxGraphModel dx="948" dy="880" grid="1" gridSize="10" guides="1" tooltips="1" connect="1" arrows="1" fold="1" page="1" pageScale="1" pageWidth="827" pageHeight="1169" math="0" shadow="0">
      <root>
        <mxCell id="0" />
        <mxCell id="1" parent="0" />
        <mxCell id="L0vHJHzmiSOljPm2janR-5" value="" style="rounded=0;" vertex="1" parent="1">
          <mxGeometry x="252.5" y="360" width="220" height="140" as="geometry" />
        </mxCell>
        <mxCell id="L0vHJHzmiSOljPm2janR-6" value="控制节点" style="text;strokeColor=none;fillColor=none;align=center;verticalAlign=middle;rounded=0;" vertex="1" parent="1">
          <mxGeometry x="337.5" y="370" width="55" height="20" as="geometry" />
        </mxCell>
        <mxCell id="L0vHJHzmiSOljPm2janR-7" value="网络控制" style="rounded=1;arcSize=50;" vertex="1" parent="1">
          <mxGeometry x="305" y="400" width="120" height="40" as="geometry" />
        </mxCell>
        <mxCell id="L0vHJHzmiSOljPm2janR-8" value="虚拟机调度控制" style="rounded=1;arcSize=50;" vertex="1" parent="1">
          <mxGeometry x="305" y="450" width="120" height="40" as="geometry" />
        </mxCell>
        <mxCell id="L0vHJHzmiSOljPm2janR-10" value="交换机" style="rounded=0;" vertex="1" parent="1">
          <mxGeometry x="287.5" y="280" width="150" height="30" as="geometry" />
        </mxCell>
        <mxCell id="L0vHJHzmiSOljPm2janR-12" value="" style="rounded=0;" vertex="1" parent="1">
          <mxGeometry x="15" y="50" width="220" height="160" as="geometry" />
        </mxCell>
        <mxCell id="L0vHJHzmiSOljPm2janR-13" value="计算节点1" style="text;strokeColor=none;fillColor=none;align=center;verticalAlign=middle;rounded=0;" vertex="1" parent="1">
          <mxGeometry x="97.5" y="180" width="55" height="20" as="geometry" />
        </mxCell>
        <mxCell id="L0vHJHzmiSOljPm2janR-14" value="虚拟机1" style="rounded=1;arcSize=50;" vertex="1" parent="1">
          <mxGeometry x="67.5" y="60" width="120" height="40" as="geometry" />
        </mxCell>
        <mxCell id="L0vHJHzmiSOljPm2janR-15" value="虚拟机n" style="rounded=1;arcSize=50;" vertex="1" parent="1">
          <mxGeometry x="65" y="140" width="120" height="40" as="geometry" />
        </mxCell>
        <mxCell id="L0vHJHzmiSOljPm2janR-17" value="" style="endArrow=none;dashed=1;" edge="1" parent="1">
          <mxGeometry width="50" height="50" relative="1" as="geometry">
            <mxPoint x="124.83000000000001" y="130" as="sourcePoint" />
            <mxPoint x="124.83000000000001" y="110" as="targetPoint" />
          </mxGeometry>
        </mxCell>
        <mxCell id="L0vHJHzmiSOljPm2janR-18" value="" style="endArrow=none;exitX=0.5;exitY=0;exitDx=0;exitDy=0;entryX=0.5;entryY=1;entryDx=0;entryDy=0;" edge="1" parent="1" source="L0vHJHzmiSOljPm2janR-5" target="L0vHJHzmiSOljPm2janR-10">
          <mxGeometry width="50" height="50" relative="1" as="geometry">
            <mxPoint x="152.5" y="380" as="sourcePoint" />
            <mxPoint x="202.5" y="330" as="targetPoint" />
          </mxGeometry>
        </mxCell>
        <mxCell id="L0vHJHzmiSOljPm2janR-19" value="" style="endArrow=classic;exitX=0;exitY=0.5;exitDx=0;exitDy=0;entryX=0.5;entryY=1;entryDx=0;entryDy=0;" edge="1" parent="1" source="L0vHJHzmiSOljPm2janR-10" target="L0vHJHzmiSOljPm2janR-12">
          <mxGeometry width="50" height="50" relative="1" as="geometry">
            <mxPoint x="50" y="380" as="sourcePoint" />
            <mxPoint x="100" y="330" as="targetPoint" />
            <Array as="points">
              <mxPoint x="125" y="295" />
            </Array>
          </mxGeometry>
        </mxCell>
        <mxCell id="L0vHJHzmiSOljPm2janR-20" value="" style="rounded=0;" vertex="1" parent="1">
          <mxGeometry x="252.5" y="50" width="220" height="160" as="geometry" />
        </mxCell>
        <mxCell id="L0vHJHzmiSOljPm2janR-21" value="计算节点2" style="text;strokeColor=none;fillColor=none;align=center;verticalAlign=middle;rounded=0;" vertex="1" parent="1">
          <mxGeometry x="335" y="180" width="55" height="20" as="geometry" />
        </mxCell>
        <mxCell id="L0vHJHzmiSOljPm2janR-22" value="虚拟机1" style="rounded=1;arcSize=50;" vertex="1" parent="1">
          <mxGeometry x="305" y="60" width="120" height="40" as="geometry" />
        </mxCell>
        <mxCell id="L0vHJHzmiSOljPm2janR-23" value="虚拟机n" style="rounded=1;arcSize=50;" vertex="1" parent="1">
          <mxGeometry x="302.5" y="140" width="120" height="40" as="geometry" />
        </mxCell>
        <mxCell id="L0vHJHzmiSOljPm2janR-24" value="" style="endArrow=none;dashed=1;" edge="1" parent="1">
          <mxGeometry width="50" height="50" relative="1" as="geometry">
            <mxPoint x="362.33000000000004" y="130" as="sourcePoint" />
            <mxPoint x="362.33000000000004" y="110" as="targetPoint" />
          </mxGeometry>
        </mxCell>
        <mxCell id="L0vHJHzmiSOljPm2janR-25" value="" style="rounded=0;" vertex="1" parent="1">
          <mxGeometry x="550" y="50" width="220" height="160" as="geometry" />
        </mxCell>
        <mxCell id="L0vHJHzmiSOljPm2janR-26" value="计算节点n" style="text;strokeColor=none;fillColor=none;align=center;verticalAlign=middle;rounded=0;" vertex="1" parent="1">
          <mxGeometry x="632.5" y="180" width="55" height="20" as="geometry" />
        </mxCell>
        <mxCell id="L0vHJHzmiSOljPm2janR-27" value="虚拟机1" style="rounded=1;arcSize=50;" vertex="1" parent="1">
          <mxGeometry x="602.5" y="60" width="120" height="40" as="geometry" />
        </mxCell>
        <mxCell id="L0vHJHzmiSOljPm2janR-28" value="虚拟机n" style="rounded=1;arcSize=50;" vertex="1" parent="1">
          <mxGeometry x="600" y="140" width="120" height="40" as="geometry" />
        </mxCell>
        <mxCell id="L0vHJHzmiSOljPm2janR-29" value="" style="endArrow=none;dashed=1;" edge="1" parent="1">
          <mxGeometry width="50" height="50" relative="1" as="geometry">
            <mxPoint x="659.83" y="130" as="sourcePoint" />
            <mxPoint x="659.83" y="110" as="targetPoint" />
          </mxGeometry>
        </mxCell>
        <mxCell id="L0vHJHzmiSOljPm2janR-30" value="" style="endArrow=none;dashed=1;dashPattern=1 3;strokeWidth=2;" edge="1" parent="1">
          <mxGeometry width="50" height="50" relative="1" as="geometry">
            <mxPoint x="500" y="129.70999999999998" as="sourcePoint" />
            <mxPoint x="530" y="129.70999999999998" as="targetPoint" />
          </mxGeometry>
        </mxCell>
        <mxCell id="L0vHJHzmiSOljPm2janR-31" value="" style="endArrow=classic;exitX=0.5;exitY=0;exitDx=0;exitDy=0;entryX=0.5;entryY=1;entryDx=0;entryDy=0;" edge="1" parent="1" source="L0vHJHzmiSOljPm2janR-10" target="L0vHJHzmiSOljPm2janR-20">
          <mxGeometry width="50" height="50" relative="1" as="geometry">
            <mxPoint x="130" y="400" as="sourcePoint" />
            <mxPoint x="180" y="350" as="targetPoint" />
          </mxGeometry>
        </mxCell>
        <mxCell id="L0vHJHzmiSOljPm2janR-32" value="" style="endArrow=classic;exitX=1;exitY=0.5;exitDx=0;exitDy=0;entryX=0.5;entryY=1;entryDx=0;entryDy=0;" edge="1" parent="1" source="L0vHJHzmiSOljPm2janR-10" target="L0vHJHzmiSOljPm2janR-25">
          <mxGeometry width="50" height="50" relative="1" as="geometry">
            <mxPoint x="620" y="350" as="sourcePoint" />
            <mxPoint x="670" y="300" as="targetPoint" />
            <Array as="points">
              <mxPoint x="660" y="295" />
            </Array>
          </mxGeometry>
        </mxCell>
      </root>
    </mxGraphModel>
  </diagram>
</mxfile>
